<svg width="197" height="21" viewBox="0 0 197 21" fill="none" xmlns="http://www.w3.org/2000/svg">
<path d="M0.492012 20.0002V1.47439H8.10126C9.3778 1.47439 10.505 1.69819 11.4831 2.1458C12.4778 2.5934 13.257 3.25651 13.8206 4.13514C14.3843 5.01377 14.6661 6.09957 14.6661 7.39267C14.6661 8.65257 14.376 9.72187 13.7958 10.6005C13.2321 11.4792 12.4529 12.1506 11.4583 12.6148C10.4802 13.0624 9.3612 13.2862 8.10126 13.2862H4.34637V20.0002H0.492012ZM4.34637 9.92907H8.12612C8.93844 9.92907 9.585 9.69697 10.0657 9.23287C10.5631 8.76867 10.8117 8.15527 10.8117 7.39267C10.8117 6.61357 10.5631 5.99186 10.0657 5.52768C9.585 5.0635 8.93844 4.83141 8.12612 4.83141H4.34637V9.92907ZM22.3187 20.2986C20.9759 20.2986 19.7491 19.9919 18.6384 19.3785C17.5442 18.7651 16.6739 17.928 16.0274 16.867C15.3808 15.7894 15.0576 14.5709 15.0576 13.2116C15.0576 11.8356 15.3808 10.6171 16.0274 9.55607C16.6739 8.49517 17.5442 7.65797 18.6384 7.04457C19.7491 6.43117 20.9759 6.12447 22.3187 6.12447C23.6615 6.12447 24.8799 6.43117 25.9741 7.04457C27.0848 7.65797 27.9634 8.49517 28.61 9.55607C29.2565 10.6171 29.5798 11.8356 29.5798 13.2116C29.5798 14.5709 29.2565 15.7894 28.61 16.867C27.9634 17.928 27.0848 18.7651 25.9741 19.3785C24.8799 19.9919 23.6615 20.2986 22.3187 20.2986ZM22.3187 16.9416C23.3465 16.9416 24.1671 16.5934 24.7805 15.8972C25.4104 15.2009 25.7254 14.3057 25.7254 13.2116C25.7254 12.134 25.4104 11.2471 24.7805 10.5508C24.1671 9.83797 23.3465 9.48147 22.3187 9.48147C21.3074 9.48147 20.4868 9.83797 19.8568 10.5508C19.2269 11.2471 18.9119 12.134 18.9119 13.2116C18.9119 14.3057 19.2269 15.2009 19.8568 15.8972C20.4868 16.5934 21.3074 16.9416 22.3187 16.9416ZM31.0724 20.0002V6.42287H34.5537V8.46197C34.9019 7.61647 35.3909 7.04457 36.0209 6.74617C36.6674 6.43117 37.4051 6.27367 38.234 6.27367H39.6514V9.50637H37.861C36.9492 9.50637 36.2115 9.78817 35.6479 10.3519C35.0842 10.8989 34.8024 11.6781 34.8024 12.6894V20.0002H31.0724ZM47.9023 20.1494C46.2611 20.1494 44.9846 19.7101 44.0729 18.8315C43.1776 17.9363 42.73 16.6929 42.73 15.1014V9.65557H40.3926V6.42287H40.5666C42.0089 6.42287 42.73 5.72662 42.73 4.33407V2.34473H46.4601V6.42287H49.643V9.65557H46.4601V15.1014C46.4601 16.4774 47.2309 17.1654 48.7727 17.1654C49.0048 17.1654 49.2949 17.1405 49.643 17.0908V20.0251C49.0959 20.108 48.5157 20.1494 47.9023 20.1494ZM52.2128 20.0002V9.65557H49.9002V6.42287H52.2128V6.02497C52.2128 4.41696 52.6853 3.17362 53.6303 2.295C54.5752 1.41637 55.8931 0.977051 57.5841 0.977051C58.0814 0.977051 58.5207 1.0185 58.902 1.10139V4.28434C58.587 4.23461 58.3135 4.20974 58.0814 4.20974C56.6557 4.20974 55.9429 4.81483 55.9429 6.02497V6.42287H58.8772V9.65557H55.9429V20.0002H52.2128ZM66.4194 20.2986C65.0766 20.2986 63.8498 19.9919 62.7391 19.3785C61.6449 18.7651 60.7746 17.928 60.1281 16.867C59.4815 15.7894 59.1583 14.5709 59.1583 13.2116C59.1583 11.8356 59.4815 10.6171 60.1281 9.55607C60.7746 8.49517 61.6449 7.65797 62.7391 7.04457C63.8498 6.43117 65.0766 6.12447 66.4194 6.12447C67.7622 6.12447 68.9807 6.43117 70.0748 7.04457C71.1855 7.65797 72.0641 8.49517 72.7107 9.55607C73.3572 10.6171 73.6805 11.8356 73.6805 13.2116C73.6805 14.5709 73.3572 15.7894 72.7107 16.867C72.0641 17.928 71.1855 18.7651 70.0748 19.3785C68.9807 19.9919 67.7622 20.2986 66.4194 20.2986ZM66.4194 16.9416C67.4472 16.9416 68.2678 16.5934 68.8812 15.8972C69.5112 15.2009 69.8261 14.3057 69.8261 13.2116C69.8261 12.134 69.5112 11.2471 68.8812 10.5508C68.2678 9.83797 67.4472 9.48147 66.4194 9.48147C65.4081 9.48147 64.5875 9.83797 63.9576 10.5508C63.3276 11.2471 63.0126 12.134 63.0126 13.2116C63.0126 14.3057 63.3276 15.2009 63.9576 15.8972C64.5875 16.5934 65.4081 16.9416 66.4194 16.9416ZM75.1731 20.0002V1.47439H78.9031V20.0002H75.1731ZM81.1411 5.20441V1.47439H84.8711V5.20441H81.1411ZM81.1411 20.0002V6.42287H84.8711V20.0002H81.1411ZM93.6243 20.2986C92.2814 20.2986 91.0547 19.9919 89.944 19.3785C88.8498 18.7651 87.9795 17.928 87.3329 16.867C86.6864 15.7894 86.3631 14.5709 86.3631 13.2116C86.3631 11.8356 86.6864 10.6171 87.3329 9.55607C87.9795 8.49517 88.8498 7.65797 89.944 7.04457C91.0547 6.43117 92.2814 6.12447 93.6243 6.12447C94.9671 6.12447 96.1855 6.43117 97.2797 7.04457C98.3904 7.65797 99.269 8.49517 99.916 9.55607C100.562 10.6171 100.885 11.8356 100.885 13.2116C100.885 14.5709 100.562 15.7894 99.916 16.867C99.269 17.928 98.3904 18.7651 97.2797 19.3785C96.1855 19.9919 94.9671 20.2986 93.6243 20.2986ZM93.6243 16.9416C94.6521 16.9416 95.4727 16.5934 96.0861 15.8972C96.716 15.2009 97.031 14.3057 97.031 13.2116C97.031 12.134 96.716 11.2471 96.0861 10.5508C95.4727 9.83797 94.6521 9.48147 93.6243 9.48147C92.613 9.48147 91.7924 9.83797 91.1624 10.5508C90.5325 11.2471 90.2175 12.134 90.2175 13.2116C90.2175 14.3057 90.5325 15.2009 91.1624 15.8972C91.7924 16.5934 92.613 16.9416 93.6243 16.9416ZM115.574 20.2986C114.248 20.2986 113.013 20.0582 111.869 19.5775C110.742 19.0967 109.756 18.4253 108.91 17.5633C108.065 16.7012 107.402 15.69 106.921 14.5295C106.457 13.369 106.225 12.1008 106.225 10.7249C106.225 9.34887 106.457 8.08067 106.921 6.92027C107.385 5.7432 108.04 4.73195 108.885 3.88647C109.731 3.02442 110.717 2.36131 111.844 1.89713C112.988 1.41637 114.232 1.17599 115.574 1.17599C116.917 1.17599 118.119 1.39979 119.18 1.84739C120.258 2.295 121.169 2.8918 121.916 3.6378C122.662 4.38381 123.192 5.2127 123.507 6.12447L120.1 7.76567C119.785 6.87047 119.23 6.13277 118.434 5.55255C117.655 4.95575 116.702 4.65734 115.574 4.65734C114.48 4.65734 113.519 4.9143 112.69 5.42822C111.861 5.94213 111.214 6.65497 110.75 7.56677C110.303 8.46197 110.079 9.51467 110.079 10.7249C110.079 11.9351 110.303 12.996 110.75 13.9078C111.214 14.8196 111.861 15.5325 112.69 16.0464C113.519 16.5603 114.48 16.8172 115.574 16.8172C116.702 16.8172 117.655 16.5271 118.434 15.9469C119.23 15.3501 119.785 14.6041 120.1 13.7089L123.507 15.3501C123.192 16.2619 122.662 17.0908 121.916 17.8368C121.169 18.5828 120.258 19.1796 119.18 19.6272C118.119 20.0748 116.917 20.2986 115.574 20.2986ZM125.242 20.0002V6.42287H128.723V8.46197C129.071 7.61647 129.56 7.04457 130.19 6.74617C130.837 6.43117 131.575 6.27367 132.403 6.27367H133.821V9.50637H132.03C131.119 9.50637 130.381 9.78817 129.817 10.3519C129.254 10.8989 128.972 11.6781 128.972 12.6894V20.0002H125.242ZM141.437 20.2986C140.011 20.2986 138.76 19.9836 137.682 19.3537C136.621 18.7071 135.792 17.8451 135.195 16.7675C134.615 15.69 134.325 14.4963 134.325 13.1867C134.325 11.8273 134.623 10.6171 135.22 9.55607C135.834 8.49517 136.654 7.65797 137.682 7.04457C138.726 6.43117 139.895 6.12447 141.188 6.12447C142.465 6.12447 143.609 6.42287 144.62 7.01967C145.631 7.61647 146.435 8.42057 147.032 9.43177C147.629 10.4265 147.927 11.5538 147.927 12.8137C147.927 13.0789 147.911 13.3442 147.877 13.6094C147.861 13.8581 147.819 14.0736 147.753 14.256H138.204C138.32 15.1014 138.668 15.7811 139.249 16.295C139.829 16.809 140.575 17.0659 141.487 17.0659C142.15 17.0659 142.713 16.9333 143.178 16.668C143.658 16.4028 144.031 16.0381 144.297 15.5739L147.281 16.9913C146.866 17.986 146.137 18.79 145.092 19.4034C144.048 20.0002 142.829 20.2986 141.437 20.2986ZM141.188 9.10847C140.459 9.10847 139.837 9.31577 139.323 9.73017C138.809 10.1447 138.461 10.7415 138.279 11.5206H143.973C143.907 10.7912 143.617 10.211 143.103 9.77987C142.606 9.33227 141.967 9.10847 141.188 9.10847ZM153.451 20.2986C152.423 20.2986 151.528 20.1245 150.766 19.7764C150.02 19.4117 149.439 18.9309 149.025 18.3341C148.627 17.7207 148.428 17.041 148.428 16.295C148.428 15.2838 148.809 14.4549 149.572 13.8084C150.335 13.1452 151.404 12.6728 152.78 12.391L157.032 11.4957V11.0481C157.032 10.5342 156.841 10.1281 156.46 9.82967C156.079 9.51467 155.573 9.35717 154.943 9.35717C154.28 9.35717 153.692 9.53957 153.178 9.90427C152.68 10.2524 152.332 10.7332 152.133 11.3465L148.926 9.80477C149.323 8.67747 150.061 7.78227 151.139 7.11917C152.233 6.45607 153.501 6.12447 154.943 6.12447C156.104 6.12447 157.115 6.33167 157.977 6.74617C158.856 7.16057 159.535 7.74087 160.016 8.48687C160.513 9.21627 160.762 10.0701 160.762 11.0481V20.0002H157.281V18.7569C156.767 19.3039 156.195 19.7018 155.565 19.9505C154.952 20.1826 154.247 20.2986 153.451 20.2986ZM152.283 16.2453C152.283 16.6598 152.44 16.983 152.755 17.2151C153.07 17.4472 153.493 17.5633 154.023 17.5633C154.869 17.5633 155.582 17.298 156.162 16.7675C156.742 16.237 157.032 15.5905 157.032 14.8279V14.1814L153.451 14.9771C152.672 15.1595 152.283 15.5822 152.283 16.2453ZM169.015 20.1494C167.374 20.1494 166.098 19.7101 165.186 18.8315C164.291 17.9363 163.843 16.6929 163.843 15.1014V9.65557H161.506V6.42287H161.68C163.122 6.42287 163.843 5.72662 163.843 4.33407V2.34473H167.573V6.42287H170.756V9.65557H167.573V15.1014C167.573 16.4774 168.344 17.1654 169.886 17.1654C170.118 17.1654 170.408 17.1405 170.756 17.0908V20.0251C170.209 20.108 169.629 20.1494 169.015 20.1494ZM178.772 20.2986C177.429 20.2986 176.202 19.9919 175.091 19.3785C173.997 18.7651 173.127 17.928 172.48 16.867C171.834 15.7894 171.511 14.5709 171.511 13.2116C171.511 11.8356 171.834 10.6171 172.48 9.55607C173.127 8.49517 173.997 7.65797 175.091 7.04457C176.202 6.43117 177.429 6.12447 178.772 6.12447C180.115 6.12447 181.333 6.43117 182.427 7.04457C183.538 7.65797 184.417 8.49517 185.063 9.55607C185.71 10.6171 186.033 11.8356 186.033 13.2116C186.033 14.5709 185.71 15.7894 185.063 16.867C184.417 17.928 183.538 18.7651 182.427 19.3785C181.333 19.9919 180.115 20.2986 178.772 20.2986ZM178.772 16.9416C179.8 16.9416 180.62 16.5934 181.234 15.8972C181.864 15.2009 182.178 14.3057 182.178 13.2116C182.178 12.134 181.864 11.2471 181.234 10.5508C180.62 9.83797 179.8 9.48147 178.772 9.48147C177.76 9.48147 176.94 9.83797 176.31 10.5508C175.68 11.2471 175.365 12.134 175.365 13.2116C175.365 14.3057 175.68 15.2009 176.31 15.8972C176.94 16.5934 177.76 16.9416 178.772 16.9416ZM187.525 20.0002V6.42287H191.007V8.46197C191.355 7.61647 191.844 7.04457 192.474 6.74617C193.12 6.43117 193.858 6.27367 194.687 6.27367H196.104V9.50637H194.314C193.402 9.50637 192.665 9.78817 192.101 10.3519C191.537 10.8989 191.255 11.6781 191.255 12.6894V20.0002H187.525Z" fill="white"/>
</svg>
